# xmcd
#
# Track frame offsets: 
#        150
#        26978
#        49403
#        69446
#        89413
#        106780
#        139264
#        158196
#        176634
#        196505
#        221587
#        236358
#
# Disc length: 3374 seconds
#
# Revision: 0
# Processed by: cddbd v1.5.2PL0 Copyright (c) Steve Scherf et al.
# Submitted via: ExactAudioCopy v1.0b3
#
DISCID=a40d2c0c
DTITLE=Mario Biondi and the High Five Quintet - Handful of soul
DYEAR=2006
DGENRE=Blues
TTITLE0=A child runs free
TTITLE1=I can't keep from cryin' sometimes
TTITLE2=No trouble on the mountain
TTITLE3=I'm her daddy
TTITLE4=No mercy for me
TTITLE5=This is what you are
TTITLE6=Rio de Janeiro blue
TTITLE7=A slow hot wind
TTITLE8=A handful of soul
TTITLE9=Never die
TTITLE10=On a clear day (you can see forever)
TTITLE11=Gig
EXTD=
EXTT0=
EXTT1=
EXTT2=
EXTT3=
EXTT4=
EXTT5=
EXTT6=
EXTT7=
EXTT8=
EXTT9=
EXTT10=
EXTT11=
PLAYORDER=
